# ProBuilder 5.0.4
# https://unity3d.com/unity/features/worldbuilding/probuilder
# 4/26/2022 3:07:50 PM

mtllib ./FoodCourtStructure.mtl
o FoodCourtStructure

g PathwayEntrance 2 (1)
v 0.75 -1.490116E-08 0.4999996
v -0.2500003 -1.490116E-08 0.4999998
v 0.75 -1.490116E-08 -5.500001
v -0.2500003 -1.490116E-08 -5.500001
v 0.6931134 0 -23.5
v -0.3068905 0 -23.5
v 0.6931115 0 -29.50001
v -0.3068886 0 -29.50001
v -30.31 5.000099 0.5000038
v -30.31 5.000099 1.500004
v -36.31 5.000099 0.5000038
v -36.31 5.000099 1.500004
v -36.31 0 0.5000038
v -36.31 0 1.500004
v -30.31 0 0.5000038
v -30.31 0 1.500004
v -5.810002 5.000517 -30
v -5.810002 5.000517 -29
v -11.81 5.000517 -30
v -11.81 5.000517 -29
v -11.81 0 -30
v -11.81 0 -29
v -5.809998 0 -30
v -5.809998 0 -29
v -47.81 5.000099 -30
v -47.81 5.000099 -29
v -53.81001 5.000099 -30
v -53.81001 5.000099 -29
v -53.81001 0 -30
v -53.81001 0 -29
v -47.81 0 -30
v -47.81 0 -29
v -48.31001 5.000099 0.5000076
v -48.31 5.000099 1.500011
v -54.31 5.000099 0.5000076
v -54.31 5.000099 1.500008
v -54.31 0 0.5000076
v -54.31 0 1.500008
v -48.31 0 0.5000076
v -48.31 0 1.500008
v -60.33701 5.000099 -5.499992
v -61.33701 5.000099 -5.499992
v -60.33701 5.000099 -36.00002
v -61.33701 5.000099 -36.00002
v -60.33701 0 -36.00001
v -61.33701 0 -36.00001
v -60.337 0 -5.499996
v -61.337 0 -5.499996
v -42.31 5.000099 0.5000038
v -42.31 5.000099 1.500004
v -42.31 0 0.5000038
v -42.31 0 1.500004
v -54.16056 5.000099 0.6523247
v -54.86767 5.000099 1.359428
v -60.48817 5.000099 -5.675293
v -61.19527 5.000099 -4.968185
v -60.48817 0 -5.675289
v -61.19528 0 -4.968182
v -54.16056 0 0.6523247
v -54.86767 0 1.359432
v -12.31 5.000099 0.5000019
v -12.31 5.000099 1.500002
v -18.31 5.000099 0.5000019
v -18.31 5.000099 1.500002
v -18.31 0 0.5000019
v -18.31 0 1.500002
v -12.31 0 0.5000019
v -12.31 0 1.500002
v -35.81001 5.000099 -30
v -35.81001 5.000099 -29
v -41.81 5.000099 -30
v -41.81001 5.000099 -29
v -41.81 0 -30
v -41.81 0 -29
v -35.81 0 -30
v -35.81 0 -29
v -11.81 5.000099 -30
v -11.81 5.000099 -29
v -17.81 5.000099 -30
v -17.81 5.000099 -29
v -17.81 0 -30
v -17.81 0 -29
v -6.309995 5.000099 0.500001
v -6.309995 5.000099 1.500001
v -6.309995 0 0.500001
v -6.309995 0 1.500001
v -24.31 5.000099 0.5000038
v -24.31 5.000099 1.500004
v -24.31 0 0.5000038
v -24.31 0 1.500004
v -29.81001 5.000099 -30
v -29.81001 5.000099 -29
v -29.81 0 -30
v -29.81 0 -29
v -52.80801 5.000099 -30
v -53.80801 5.000099 -30
v -52.80801 5.000099 -36
v -53.80801 5.000099 -36
v -52.80801 0 -36
v -53.80801 0 -36
v -52.80801 0 -30
v -53.80801 0 -30
v -23.81 5.000099 -30
v -23.81 5.000099 -29
v -23.81 0 -30
v -23.81 0 -29
v -0.3099976 0 -29.5
v -0.3099937 0 0.5000001
v -60.31001 0 -29.5
v -60.31 0 0.5000076

vt -0.75 0.4999996
vt 0.2500003 0.4999998
vt -0.75 -5.500001
vt 0.2500003 -5.500001
vt 0.75 -5.500001
vt -0.2500003 -5.500001
vt 0.75 0.4999996
vt -0.2500003 0.4999998
vt -0.6931133 0.5000019
vt 0.3068882 0.5000019
vt -0.6931124 -5.5
vt 0.3068852 -5.5
vt 0.6931114 -5.5
vt -0.3068852 -5.5
vt 0.6931133 0.5000019
vt -0.3068871 0.5000019
vt -0.5 0.5
vt 0.5 0.5
vt -0.5 -5.5
vt 0.5 -5.5
vt 0.5 -2.384186E-07
vt -0.5 -2.384186E-07
vt 0.5 5.000101
vt -0.5 5.000101
vt 5.5 -2.384186E-07
vt 5.5 5.000101
vt -5.5 -2.384186E-07
vt -5.5 5.000101
vt -0.5 0.4999981
vt 0.5 0.4999981
vt 0.5 0.9685526
vt -0.5 0.9685526
vt 5.499999 2.980232E-08
vt 5.500002 0.9685539
vt -0.4999967 0.9685539
vt -5.499999 2.980232E-08
vt 0.4999967 0.9685539
vt -5.500002 0.9685539
vt 0.4999962 0.5000038
vt -0.4999962 -5.499994
vt 0.5 -5.499994
vt 0.4999962 -5.499996
vt -0.5 -5.499996
vt -0.4999962 0.5000038
vt -0.4999962 -2.384186E-07
vt -0.4999962 5.000101
vt 0.4999962 -2.384186E-07
vt 0.4999962 5.000101
vt 0.4999962 -5.5
vt -0.4999924 -30.00002
vt 0.5000114 -30.00002
vt 0.4999962 -30.00001
vt -0.5000038 -30.00001
vt 30.00001 -1.192093E-06
vt 30.00002 5.000099
vt -30.00002 2.384186E-07
vt -30.00002 5.000101
vt -0.4043198 0.7925007
vt 0.4043045 0.7925005
vt -0.4043198 -6.443563
vt 0.4043045 -6.443562
vt 0.4043121 0.7924984
vt -0.4043121 0.7924972
vt 6.347874 4.768372E-07
vt -0.6968136 4.768372E-07
vt 6.347874 5.000101
vt -0.6968136 5.000101
vt 0.6968117 -7.152557E-07
vt -6.347876 -7.152557E-07
vt 0.6968117 5.0001
vt -6.347876 5.0001
vt -0.4999962 0.4999962
vt -0.4999981 -5.500002
vt 5.499999 5.000101
vt -5.499999 5.000101
vt 0.4999962 0.4999962
vt 29.5 0.4999981
vt -0.500001 -59.5
vt 29.5 -59.5
vt 0.4999933 -59.5
vt -29.5 -59.5
vt -29.49999 0.5

vn 0 1 0
vn 0 -1 0
vn 1 0 0
vn 0 0 -1
vn 0 0 1
vn -1 0 0
vn 0.7071068 -5.39469E-07 0.7071068
vn 0.7071072 -1.078938E-06 -0.7071064
vn -0.7071072 1.078938E-06 0.7071064
vn -0.7071068 0 -0.7071068

usemtl wall
f 3/3/1 4/4/1 2/2/1 1/1/1
f 1/7/2 2/8/2 4/6/2 3/5/2
f 7/11/1 8/12/1 6/10/1 5/9/1
f 5/15/2 6/16/2 8/14/2 7/13/2
f 43/50/1 44/51/1 42/18/1 41/44/1
f 47/18/2 48/17/2 46/53/2 45/52/2
f 41/48/5 42/24/5 48/22/5 47/21/5
f 43/55/3 41/24/3 47/45/3 45/54/3
f 42/23/6 44/57/6 46/56/6 48/47/6
f 44/23/4 43/46/4 45/45/4 46/21/4
f 55/60/1 56/61/1 54/59/1 53/58/1
f 59/62/2 60/63/2 58/60/2 57/61/2
f 53/23/7 54/46/7 60/45/7 59/21/7
f 55/66/8 53/67/8 59/65/8 57/64/8
f 54/70/9 56/71/9 58/69/9 60/68/9
f 56/48/10 55/24/10 57/45/10 58/47/10
f 97/19/1 98/20/1 96/18/1 95/17/1
f 101/18/2 102/17/2 100/19/2 99/20/2
f 95/23/5 96/24/5 102/22/5 101/21/5
f 97/26/3 95/24/3 101/22/3 99/25/3
f 96/23/6 98/28/6 100/27/6 102/21/6
f 98/23/4 97/24/4 99/22/4 100/21/4

usemtl Yellow_mat
f 11/19/1 12/20/1 10/18/1 9/17/1
f 15/18/2 16/17/2 14/19/2 13/20/2
f 9/23/3 10/24/3 16/22/3 15/21/3
f 11/26/4 9/24/4 15/22/4 13/25/4
f 10/23/5 12/28/5 14/27/5 16/21/5
f 12/23/6 11/24/6 13/22/6 14/21/6
f 71/43/1 72/20/1 70/30/1 69/72/1
f 75/18/2 76/17/2 74/19/2 73/20/2
f 69/48/3 70/24/3 76/45/3 75/21/3
f 71/26/4 69/46/4 75/22/4 73/25/4
f 70/23/5 72/28/5 74/36/5 76/21/5
f 72/23/6 71/24/6 73/22/6 74/47/6
f 79/73/1 80/20/1 78/30/1 77/29/1
f 21/18/2 22/17/2 82/19/2 81/49/2
f 77/23/3 78/24/3 22/22/3 21/21/3
f 79/74/4 77/46/4 21/22/4 81/33/4
f 78/48/5 80/75/5 82/36/5 22/21/5
f 80/23/6 79/24/6 81/22/6 82/21/6
f 61/73/1 62/20/1 84/39/1 83/17/1
f 85/18/2 86/44/2 68/19/2 67/49/2
f 83/23/3 84/24/3 86/22/3 85/21/3
f 61/26/4 83/24/4 85/22/4 67/25/4
f 84/23/5 62/28/5 68/27/5 86/21/5
f 62/23/6 61/24/6 67/22/6 68/21/6
f 87/40/1 88/41/1 64/39/1 63/17/1
f 65/18/2 66/44/2 90/43/2 89/42/2
f 63/23/3 64/24/3 66/22/3 65/21/3
f 87/74/4 63/24/4 65/22/4 89/33/4
f 64/23/5 88/75/5 90/36/5 66/21/5
f 88/23/6 87/24/6 89/22/6 90/21/6
f 61/73/1 62/20/1 84/39/1 83/17/1
f 85/18/2 86/44/2 68/19/2 67/49/2
f 83/23/3 84/24/3 86/22/3 85/21/3
f 61/26/4 83/24/4 85/22/4 67/25/4
f 84/23/5 62/28/5 68/27/5 86/21/5
f 62/23/6 61/24/6 67/22/6 68/21/6
f 91/19/1 92/20/1 104/76/1 103/29/1
f 105/18/2 106/44/2 94/19/2 93/20/2
f 103/23/3 104/24/3 106/22/3 105/21/3
f 91/26/4 103/46/4 105/22/4 93/33/4
f 104/48/5 92/28/5 94/36/5 106/21/5
f 92/23/6 91/24/6 93/22/6 94/21/6

usemtl Green_mat
f 19/19/1 20/20/1 18/30/1 17/29/1
f 23/18/2 24/17/2 22/19/2 21/20/2
f 17/31/3 18/32/3 24/22/3 23/21/3
f 19/34/4 17/35/4 23/22/4 21/33/4
f 18/37/5 20/38/5 22/36/5 24/21/5
f 20/31/6 19/32/6 21/22/6 22/21/6
f 27/40/1 28/41/1 26/39/1 25/17/1
f 31/18/2 32/44/2 30/43/2 29/42/2
f 25/23/3 26/24/3 32/22/3 31/21/3
f 27/26/4 25/46/4 31/45/4 29/25/4
f 26/48/5 28/28/5 30/27/5 32/47/5
f 28/23/6 27/24/6 29/22/6 30/21/6
f 35/19/1 36/49/1 34/18/1 33/29/1
f 39/18/2 40/17/2 38/19/2 37/20/2
f 33/23/3 34/24/3 40/45/3 39/21/3
f 35/26/4 33/46/4 39/22/4 37/25/4
f 34/23/5 36/28/5 38/27/5 40/21/5
f 36/23/6 35/24/6 37/22/6 38/21/6
f 49/19/1 50/20/1 12/18/1 11/17/1
f 13/18/2 14/17/2 52/19/2 51/20/2
f 11/23/3 12/24/3 14/22/3 13/21/3
f 49/26/4 11/24/4 13/22/4 51/25/4
f 12/23/5 50/28/5 52/27/5 14/21/5
f 50/23/6 49/24/6 51/22/6 52/21/6
f 63/19/1 64/20/1 62/18/1 61/17/1
f 67/18/2 68/17/2 66/19/2 65/20/2
f 61/23/3 62/24/3 68/22/3 67/21/3
f 63/26/4 61/24/4 67/22/4 65/25/4
f 62/23/5 64/28/5 66/27/5 68/21/5
f 64/23/6 63/24/6 65/22/6 66/21/6
f 69/73/1 70/20/1 92/76/1 91/29/1
f 93/18/2 94/17/2 76/19/2 75/20/2
f 91/23/3 92/24/3 94/22/3 93/21/3
f 69/26/4 91/46/4 93/22/4 75/33/4
f 92/48/5 70/28/5 76/36/5 94/21/5
f 70/23/6 69/46/6 75/22/6 76/47/6
f 9/19/1 10/20/1 88/18/1 87/17/1
f 89/18/2 90/17/2 16/19/2 15/20/2
f 87/23/3 88/24/3 90/22/3 89/21/3
f 9/26/4 87/24/4 89/22/4 15/25/4
f 88/23/5 10/28/5 16/27/5 90/21/5
f 10/23/6 9/24/6 15/22/6 16/21/6
f 103/19/1 104/20/1 80/18/1 79/17/1
f 81/18/2 82/17/2 106/43/2 105/41/2
f 79/23/3 80/24/3 82/22/3 81/21/3
f 103/26/4 79/24/4 81/22/4 105/25/4
f 80/23/5 104/28/5 106/27/5 82/21/5
f 104/23/6 103/24/6 105/22/6 106/21/6

usemtl ProBuilderDefault
f 109/78/1 110/79/1 108/77/1 107/72/1
f 107/30/2 108/82/2 110/81/2 109/80/2

