# Blender v3.1.2 OBJ File: ''
# www.blender.org
mtllib Remodeled_Food_Court_Rescaled.mtl
o Remodeled_Food_Court
v -30.124950 -0.000006 35.934261
v 20.005960 -0.000006 36.065739
v 12.375050 -0.000003 20.434259
v -23.124950 -0.000003 20.434259
v -23.124950 0.000003 -15.565740
v -23.124950 0.000004 -22.065741
v 12.375050 0.000003 -15.565740
v -23.124950 0.000005 -28.065741
v 16.875050 0.000003 -15.565740
v 16.875050 0.000004 -21.565741
v 12.375050 0.000004 -21.565741
v -15.124950 0.000006 -36.065739
v 12.375050 0.000004 -26.065741
v 30.125050 0.000006 -36.065739
v 29.875050 0.000004 -26.065741
v 30.125050 -0.999994 -36.065739
v 29.875050 -0.999996 -26.065741
v 12.375050 -0.999996 -26.065741
v -15.124950 -0.999994 -36.065739
v 12.375050 -0.999996 -21.565741
v -23.124950 -0.999995 -28.065741
v 12.375050 -0.999997 -15.565740
v 16.875050 -0.999997 -15.565740
v 16.875050 -0.999996 -21.565741
v -23.124950 -0.999996 -22.065741
v 12.375050 -1.000003 20.434259
v -23.124950 -0.999997 -15.565740
v -23.124950 -1.000003 20.434259
v -30.124950 -1.000006 35.934261
v 20.005960 -1.000006 36.065739
v -30.125050 0.000003 -15.565740
v -30.125050 -0.999996 -22.065741
v -30.125050 -0.999997 -15.565740
v -30.125050 0.000004 -22.065741
v -20.000000 2.999398 -28.000000
v -23.000000 2.999398 -22.000000
v -20.000000 2.999398 -22.000000
v -23.000000 2.999398 -28.000000
v -23.000000 -0.000702 -28.000000
v -23.000000 -0.000703 -22.000000
v -20.000000 -0.000703 -22.000000
v -20.000000 -0.000702 -28.000000
v -20.000000 3.000704 14.500001
v -23.000000 3.000703 20.500000
v -20.000000 3.000703 20.500000
v -23.000000 3.000704 14.500001
v -20.000000 -0.000710 20.500000
v -23.000000 -0.000709 14.500000
v -20.000000 -0.000709 14.500000
v -23.000000 -0.000710 20.500000
v -20.000000 2.999393 2.500000
v -23.000000 2.999393 8.500003
v -20.000000 2.999393 8.500003
v -23.000000 2.999393 2.500000
v -20.000000 -0.000708 8.500002
v -23.000000 -0.000707 2.500002
v -20.000000 -0.000707 2.500002
v -23.000000 -0.000708 8.500002
v -20.000000 2.999395 -9.500001
v -23.000000 2.999394 -3.500000
v -20.000000 2.999394 -3.500000
v -23.000000 2.999395 -9.500001
v -23.000000 -0.000705 -9.499998
v -23.000000 -0.000706 -3.499998
v -20.000000 -0.000706 -3.499998
v -20.000000 -0.000705 -9.499998
v -20.000000 2.999397 -15.499999
v -23.000000 2.999397 -15.499999
v -23.000000 -0.000704 -15.500000
v -20.000000 -0.000704 -15.500000
v -23.000000 2.999392 14.500001
v -20.000000 2.999392 14.500001
v -20.050249 -0.000046 -28.032640
v -20.757360 -0.000045 -28.739750
v -14.429750 -0.000044 -35.067360
v -13.722640 -0.000044 -34.360249
v -13.722640 5.000056 -34.360241
v -20.757360 5.000055 -28.739750
v -20.050249 5.000055 -28.032640
v -14.429750 5.000056 -35.067348
v -13.750010 -0.000044 -34.360001
v -13.750010 -0.000044 -35.360001
v 20.000010 -0.000044 -35.359989
v 20.000010 -0.000044 -34.359989
v 20.000019 5.000056 -34.360001
v -13.750010 5.000056 -35.360001
v -13.750010 5.000056 -34.360001
v 20.000019 5.000056 -35.360001
v 13.000000 -0.000046 -26.000000
v 13.000000 -0.000046 -27.000000
v 20.000000 -0.000046 -27.000000
v 20.000000 -0.000046 -26.000000
v 20.000010 5.000054 -26.000000
v 13.000000 5.000054 -27.000000
v 13.000000 5.000054 -26.000000
v 20.000000 5.000054 -27.000010
v 13.000000 2.999398 -27.750000
v 10.000000 2.999398 -21.750000
v 13.000000 2.999398 -21.750000
v 10.000000 2.999398 -27.750000
v 13.000000 -0.000703 -21.750000
v 10.000000 -0.000702 -27.750000
v 13.000000 -0.000702 -27.750000
v 10.000000 -0.000703 -21.750000
v 13.000000 3.000704 14.250001
v 10.000000 3.000703 20.250000
v 13.000000 3.000703 20.250000
v 10.000000 3.000704 14.250001
v 13.000000 -0.000709 20.250000
v 10.000000 -0.000709 14.250000
v 13.000000 -0.000709 14.250000
v 10.000000 -0.000710 20.250000
v 13.000000 2.999396 -9.750003
v 10.000000 2.999395 -3.750001
v 13.000000 2.999395 -3.750001
v 10.000000 2.999396 -9.750003
v 10.000000 -0.000705 -9.750000
v 10.000000 -0.000706 -3.750000
v 13.000000 -0.000706 -3.750000
v 13.000000 -0.000705 -9.750000
v 13.000000 2.999393 2.249999
v 10.000000 2.999393 8.250001
v 13.000000 2.999393 8.250001
v 10.000000 2.999393 2.249999
v 13.000000 -0.000708 8.250000
v 10.000000 -0.000707 2.250000
v 13.000000 -0.000707 2.250000
v 10.000000 -0.000708 8.250000
v 10.000000 2.999392 14.250001
v 13.000000 2.999392 14.250001
v 13.000000 2.999397 -15.749999
v 10.000000 2.999397 -15.749999
v 10.000000 -0.000704 -15.750000
v 13.000000 -0.000704 -15.750000
vt 30.124950 35.934261
vt -20.005960 36.065739
vt -12.375050 20.434259
vt 23.124950 20.434259
vt 23.124950 -15.565740
vt 23.124950 -22.065741
vt -12.375050 -15.565740
vt 23.124950 -28.065741
vt -16.875050 -15.565740
vt -16.875050 -21.565741
vt -12.375050 -21.565741
vt 15.124950 -36.065739
vt -12.375050 -26.065741
vt -30.125050 -36.065739
vt -29.875050 -26.065741
vt 30.125050 -36.065739
vt 29.875050 -26.065741
vt 12.375050 -26.065741
vt -15.124950 -36.065739
vt 12.375050 -21.565741
vt -23.124950 -28.065741
vt 12.375050 -15.565740
vt 16.875050 -15.565740
vt 16.875050 -21.565741
vt -23.124950 -22.065741
vt 12.375050 20.434259
vt -23.124950 -15.565740
vt -23.124950 20.434259
vt -30.124950 35.934261
vt 20.005960 36.065739
vt -23.791830 0.500000
vt -41.186489 -0.500000
vt -23.791830 -0.500000
vt -41.186489 0.500000
vt 20.100479 0.500000
vt -30.030600 -0.500000
vt 20.100479 -0.500000
vt -30.030600 0.500000
vt 45.148460 0.500000
vt 28.141109 -0.500000
vt 45.148460 -0.500000
vt 28.141109 0.500000
vt 20.434259 0.500000
vt -15.565740 -0.500000
vt 20.434259 -0.500000
vt -15.565740 0.500000
vt -15.565740 0.500000
vt -22.065741 -0.500000
vt -15.565740 -0.500000
vt -22.065741 0.500000
vt 15.565740 0.500000
vt -20.434259 -0.500000
vt 15.565740 -0.500000
vt -20.434259 0.500000
vt -22.065741 0.500000
vt -28.065741 -0.500000
vt -22.065741 -0.500000
vt -28.065741 0.500000
vt -12.375050 0.500000
vt -16.875050 -0.500000
vt -12.375050 -0.500000
vt -16.875050 0.500000
vt 21.565741 0.500000
vt 15.565740 -0.500000
vt 21.565741 -0.500000
vt 15.565740 0.500000
vt 16.875050 0.500000
vt 12.375050 -0.500000
vt 16.875050 -0.500000
vt 12.375050 0.500000
vt -3.493665 0.500000
vt -14.807370 -0.500000
vt -3.493665 -0.500000
vt -14.807370 0.500000
vt 26.065741 0.500000
vt 21.565741 -0.500000
vt 26.065741 -0.500000
vt 21.565741 0.500000
vt 15.124950 0.500000
vt -30.125050 -0.500000
vt 15.124950 -0.500000
vt -30.125050 0.500000
vt 36.807369 0.500000
vt 26.804239 -0.500000
vt 36.807369 -0.500000
vt 26.804239 0.500000
vt 29.875050 0.500000
vt 12.375050 -0.500000
vt 29.875050 -0.500000
vt 12.375050 0.500000
vt -30.125050 -15.565740
vt -30.125050 -22.065741
vt -30.125050 0.500000
vt -23.124950 -0.500000
vt -23.124950 0.500000
vt -30.125050 -0.500000
vt 30.125050 -0.500000
vt 23.124950 0.500000
vt 23.124950 -0.500000
vt 30.125050 0.500000
vt 30.125050 -22.065741
vt 30.125050 -15.565740
vt -1.500000 -24.250000
vt 1.500000 -18.250000
vt -1.500000 -18.250000
vt 1.500000 -24.250000
vt 1.500000 -24.250000
vt 1.500000 -18.250000
vt -1.500000 -18.250000
vt -1.500000 -24.250000
vt 1.500000 1.499406
vt -1.500000 -1.500695
vt 1.500000 -1.500695
vt -1.500000 1.499406
vt 24.250000 1.499394
vt 18.250000 -1.500706
vt 24.250000 -1.500706
vt 18.250000 1.499394
vt -18.250000 1.499394
vt -24.250000 -1.500706
vt -18.250000 -1.500706
vt -24.250000 1.499394
vt 1.500000 1.499425
vt -1.500000 -1.500695
vt 1.500000 -1.500695
vt -1.500000 1.499406
vt -0.500000 -5.500003
vt 0.500000 0.499998
vt -0.500000 0.499998
vt 0.500000 -5.500003
vt 0.500000 0.500000
vt -0.500000 -5.500003
vt 0.500000 -5.500000
vt -0.500000 0.500000
vt 0.500000 0.968553
vt -0.500000 -0.000001
vt 0.500000 -0.000001
vt -0.500000 0.968553
vt 5.500003 0.968554
vt -0.500000 -0.000001
vt 5.500000 0.000000
vt -0.499998 0.968554
vt 0.499998 0.968554
vt -5.500000 0.000000
vt 0.500000 -0.000001
vt -5.500003 0.968554
vt 0.499998 0.968554
vt -0.500000 -0.000001
vt 0.500000 -0.000001
vt -0.500000 0.968553
vt -1.500000 -24.250000
vt 1.500000 -18.250000
vt -1.500000 -18.250000
vt 1.500000 -24.250000
vt 1.500000 -18.250000
vt -1.500000 -24.250000
vt 1.500000 -24.250000
vt -1.500000 -18.250000
vt 1.500000 1.499406
vt -1.500000 -1.500695
vt 1.500000 -1.500695
vt -1.500000 1.499406
vt 24.250000 1.499394
vt 18.250000 -1.500706
vt 24.250000 -1.500706
vt 18.250000 1.499394
vt -18.250000 1.499394
vt -24.250000 -1.500706
vt -18.250000 -1.500706
vt -24.250000 1.499394
vt 1.500000 1.499406
vt -1.500000 -1.500695
vt 1.500000 -1.500695
vt -1.500000 1.499406
vt -1.500000 -24.250000
vt 1.500000 -18.250000
vt -1.500000 -18.250000
vt 1.500000 -24.250000
vt 1.500000 -24.250000
vt 1.500000 -18.250000
vt -1.500000 -18.250000
vt -1.500000 -24.250000
vt 1.500000 1.499406
vt -1.500000 -1.500695
vt 1.500000 -1.500695
vt -1.500000 1.499406
vt 24.250000 1.499394
vt 18.250000 -1.500706
vt 24.250000 -1.500706
vt 18.250000 1.499394
vt -18.250000 1.499394
vt -24.250000 -1.500706
vt -18.250000 -1.500706
vt -24.250000 1.499394
vt 1.500000 1.499406
vt -1.500000 -1.500695
vt 1.500000 -1.500695
vt -1.500000 1.499406
vt -1.500000 -24.000000
vt 1.500000 -18.000000
vt -1.500000 -18.000000
vt 1.500000 -24.000000
vt 1.500000 -18.000000
vt -1.500000 -24.000000
vt 1.500000 -24.000000
vt -1.500000 -18.000000
vt 1.500000 1.499394
vt -1.500000 -1.500706
vt 1.500000 -1.500706
vt -1.500000 1.499394
vt 24.000000 1.499394
vt 18.000000 -1.500706
vt 24.000000 -1.500706
vt 18.000000 1.499394
vt -18.000000 1.499394
vt -24.000000 -1.500706
vt -18.000000 -1.500706
vt -24.000000 1.499394
vt 1.500000 1.499394
vt -1.500000 -1.500706
vt 1.500000 -1.500706
vt -1.500000 1.499394
vt -0.500000 -5.500003
vt 0.500000 0.499998
vt -0.500000 0.499998
vt 0.500000 -5.500003
vt 0.500000 0.500000
vt -0.500000 -5.500003
vt 0.500000 -5.500000
vt -0.500000 0.500000
vt 0.500000 0.968553
vt -0.500000 -0.000001
vt 0.500000 -0.000001
vt -0.500000 0.968553
vt 5.500003 0.968554
vt -0.500000 -0.000001
vt 5.500000 0.000000
vt -0.499998 0.968554
vt 0.499998 0.968554
vt -5.500000 0.000000
vt 0.500000 -0.000001
vt -5.500003 0.968554
vt 0.499998 0.968554
vt -0.500000 -0.000001
vt 0.500000 -0.000001
vt -0.500000 0.968553
vt -1.500000 -24.000000
vt 1.500000 -18.000000
vt -1.500000 -18.000000
vt 1.500000 -24.000000
vt 1.500000 -24.000000
vt 1.500000 -18.000000
vt -1.500000 -18.000000
vt -1.500000 -24.000000
vt 1.500000 1.499394
vt -1.500000 -1.500706
vt 1.500000 -1.500706
vt -1.500000 1.499394
vt 24.000000 1.499394
vt 18.000000 -1.500706
vt 24.000000 -1.500706
vt 18.000000 1.499394
vt -18.000000 1.499394
vt -24.000000 -1.500706
vt -18.000000 -1.500706
vt -24.000000 1.499394
vt 1.500000 1.499394
vt -1.500000 -1.500706
vt 1.500000 -1.500706
vt -1.500000 1.499394
vt -1.500000 -24.000000
vt 1.500000 -18.000000
vt -1.500000 -18.000000
vt 1.500000 -24.000000
vt 1.500000 -18.000000
vt -1.500000 -24.000000
vt 1.500000 -24.000000
vt -1.500000 -18.000000
vt 1.500000 1.499394
vt -1.500000 -1.500706
vt 1.500000 -1.500706
vt -1.500000 1.499394
vt 24.000000 1.499394
vt 18.000000 -1.500706
vt 24.000000 -1.500706
vt 18.000000 1.499394
vt -18.000000 1.499394
vt -24.000000 -1.500706
vt -18.000000 -1.500706
vt -24.000000 1.499394
vt 1.500000 1.499394
vt -1.500000 -1.500706
vt 1.500000 -1.500706
vt -1.500000 1.499394
vt -1.500000 -24.250000
vt 1.500000 -18.250000
vt -1.500000 -18.250000
vt 1.500000 -24.250000
vt 1.500000 -18.250000
vt -1.500000 -24.250000
vt 1.500000 -24.250000
vt -1.500000 -18.250000
vt 1.500000 1.499406
vt -1.500000 -1.500695
vt 1.500000 -1.500695
vt -1.500000 1.499406
vt 24.250000 1.499394
vt 18.250000 -1.500706
vt 24.250000 -1.500706
vt 18.250000 1.499394
vt -18.250000 1.499394
vt -24.250000 -1.500706
vt -18.250000 -1.500706
vt -24.250000 1.499394
vt 1.500000 1.499406
vt -1.500000 -1.500695
vt 1.500000 -1.500695
vt -1.500000 1.499406
vt -1.500000 -24.250000
vt 1.500000 -18.250000
vt -1.500000 -18.250000
vt 1.500000 -24.250000
vt 1.500000 -18.250000
vt -1.500000 -24.250000
vt 1.500000 -24.250000
vt -1.500000 -18.250000
vt 1.500000 1.499406
vt -1.500000 -1.500695
vt 1.500000 -1.500695
vt -1.500000 1.499406
vt 24.250000 1.499394
vt 18.250000 -1.500706
vt 24.250000 -1.500706
vt 18.250000 1.499394
vt -18.250000 1.499394
vt -24.250000 -1.500706
vt -18.250000 -1.500706
vt -24.250000 1.499394
vt 1.500000 1.499406
vt -1.500000 -1.500695
vt 1.500000 -1.500695
vt -1.500000 1.499406
vt -1.500000 -24.250000
vt 1.500000 -18.250000
vt -1.500000 -18.250000
vt 1.500000 -24.250000
vt 1.500000 -18.250000
vt -1.500000 -24.250000
vt 1.500000 -24.250000
vt -1.500000 -18.250000
vt 1.500000 1.499406
vt -1.500000 -1.500695
vt 1.500000 -1.500695
vt -1.500000 1.499406
vt 24.250000 1.499394
vt 18.250000 -1.500706
vt 24.250000 -1.500706
vt 18.250000 1.499394
vt -18.250000 1.499394
vt -24.250000 -1.500706
vt -18.250000 -1.500706
vt -24.250000 1.499394
vt 1.500000 1.499406
vt -1.500000 -1.500695
vt 1.500000 -1.500695
vt -1.500000 1.499406
vt -1.500000 -24.000000
vt 1.500000 -18.000000
vt -1.500000 -18.000000
vt 1.500000 -24.000000
vt 1.500000 -18.000000
vt -1.500000 -24.000000
vt 1.500000 -24.000000
vt -1.500000 -18.000000
vt 1.500000 1.499394
vt -1.500000 -1.500706
vt 1.500000 -1.500706
vt -1.500000 1.499394
vt 24.000000 1.499394
vt 18.000000 -1.500706
vt 24.000000 -1.500706
vt 18.000000 1.499394
vt -18.000000 1.499394
vt -24.000000 -1.500706
vt -18.000000 -1.500706
vt -24.000000 1.499394
vt 1.500000 1.499394
vt -1.500000 -1.500706
vt 1.500000 -1.500706
vt -1.500000 1.499394
vt -1.500000 -24.000000
vt 1.500000 -18.000000
vt -1.500000 -18.000000
vt 1.500000 -24.000000
vt 1.500000 -18.000000
vt -1.500000 -24.000000
vt 1.500000 -24.000000
vt -1.500000 -18.000000
vt 1.500000 1.499394
vt -1.500000 -1.500706
vt 1.500000 -1.500706
vt -1.500000 1.499394
vt 24.000000 1.499394
vt 18.000000 -1.500706
vt 24.000000 -1.500706
vt 18.000000 1.499394
vt -18.000000 1.499394
vt -24.000000 -1.500706
vt -18.000000 -1.500706
vt -24.000000 1.499394
vt 1.500000 1.499394
vt -1.500000 -1.500706
vt 1.500000 -1.500706
vt -1.500000 1.499394
vt -1.500000 -24.000000
vt 1.500000 -18.000000
vt -1.500000 -18.000000
vt 1.500000 -24.000000
vt 1.500000 -18.000000
vt -1.500000 -24.000000
vt 1.500000 -24.000000
vt -1.500000 -18.000000
vt 1.500000 1.499394
vt -1.500000 -1.500706
vt 1.500000 -1.500706
vt -1.500000 1.499394
vt 24.000000 1.499394
vt 18.000000 -1.500706
vt 24.000000 -1.500706
vt 18.000000 1.499394
vt -18.000000 1.499394
vt -24.000000 -1.500706
vt -18.000000 -1.500706
vt -24.000000 1.499394
vt 1.500000 1.499394
vt -1.500000 -1.500706
vt 1.500000 -1.500706
vt -1.500000 1.499394
vt -0.500005 -3.522342
vt 0.499999 3.522345
vt -0.500001 3.522346
vt 0.499994 -3.522343
vt 0.499999 3.522345
vt -0.499998 -3.522344
vt 0.500001 -3.522343
vt -0.500001 3.522346
vt 0.500005 2.500051
vt -0.499999 -2.500049
vt 0.500001 -2.500049
vt -0.499994 2.500051
vt 3.522342 2.500051
vt -3.522345 -2.500050
vt 3.522343 -2.500050
vt -3.522346 2.500051
vt 3.522342 2.500051
vt -3.522345 -2.500050
vt 3.522343 -2.500050
vt -3.522346 2.500051
vt 0.499998 2.500049
vt -0.499999 -2.500049
vt 0.500001 -2.500049
vt -0.500002 2.500049
vt -0.499997 -18.500010
vt 0.499999 15.250010
vt -0.500001 15.250010
vt 0.499999 -18.500019
vt 0.500006 15.250010
vt -0.499997 -18.500010
vt 0.500005 -18.500010
vt -0.499994 15.250010
vt 0.500001 2.500050
vt -0.499994 -2.500050
vt 0.500006 -2.500050
vt -0.499999 2.500050
vt 18.500010 2.500049
vt -15.250010 -2.500051
vt 18.500010 -2.500051
vt -15.250010 2.500049
vt 15.250010 2.500051
vt -18.500010 -2.500050
vt 15.250010 -2.500050
vt -18.500019 2.500051
vt 0.499999 2.500078
vt -0.500005 -2.500022
vt 0.499995 -2.500022
vt -0.499999 2.500050
vt -0.499994 -4.000006
vt 0.500003 3.000002
vt -0.499998 3.000002
vt 0.500008 -4.000004
vt 0.500003 3.000002
vt -0.500004 -4.000000
vt 0.499996 -4.000002
vt -0.499998 3.000002
vt 0.499998 2.500051
vt -0.500000 -2.500049
vt 0.500000 -2.500049
vt -0.500003 2.500051
vt 4.000006 2.500050
vt -3.000000 -2.500050
vt 4.000001 -2.500050
vt -3.000002 2.500050
vt 3.000002 2.500050
vt -4.000000 -2.500050
vt 3.000000 -2.500050
vt -4.000004 2.500050
vt 0.499998 2.500051
vt -0.500004 -2.500047
vt 0.499996 -2.500047
vt -0.500003 2.500051
vn 0.0000 1.0000 0.0000
vn 0.0000 -1.0000 -0.0000
vn 0.8986 0.0000 -0.4387
vn -0.0026 0.0000 1.0000
vn -0.9114 0.0000 -0.4116
vn -1.0000 0.0000 0.0000
vn 1.0000 0.0000 0.0000
vn 0.0000 0.0000 -1.0000
vn 0.0000 0.0000 1.0000
vn -0.7071 0.0000 -0.7071
vn 0.9997 0.0000 0.0250
vn -0.7071 0.0000 0.7071
vn 0.7071 -0.0000 0.7071
vn 0.7071 0.0000 -0.7071
usemtl ProBuilderDefault
s 1
f 1/1/1 2/2/1 3/3/1
f 1/1/1 3/3/1 4/4/1
f 4/4/1 3/3/1 5/5/1
f 5/5/1 3/3/1 6/6/1
f 7/7/1 6/6/1 3/3/1
f 6/6/1 7/7/1 8/8/1
f 9/9/1 10/10/1 11/11/1
f 9/9/1 11/11/1 7/7/1
f 8/8/1 7/7/1 11/11/1
f 12/12/1 8/8/1 11/11/1
f 11/11/1 13/13/1 12/12/1
f 12/12/1 13/13/1 14/14/1
f 13/13/1 15/15/1 14/14/1
f 16/16/2 17/17/2 18/18/2
f 16/16/2 18/18/2 19/19/2
f 19/19/2 18/18/2 20/20/2
f 20/20/2 21/21/2 19/19/2
f 20/20/2 22/22/2 21/21/2
f 22/22/2 20/20/2 23/23/2
f 20/20/2 24/24/2 23/23/2
f 21/21/2 22/22/2 25/25/2
f 26/26/2 25/25/2 22/22/2
f 25/25/2 26/26/2 27/27/2
f 27/27/2 26/26/2 28/28/2
f 28/28/2 26/26/2 29/29/2
f 26/26/2 30/30/2 29/29/2
f 3/31/3 30/32/3 26/33/3
f 3/31/3 2/34/3 30/32/3
f 2/35/4 29/36/4 30/37/4
f 2/35/4 1/38/4 29/36/4
f 1/39/5 28/40/5 29/41/5
f 1/39/5 4/42/5 28/40/5
f 4/43/6 27/44/6 28/45/6
f 4/43/6 5/46/6 27/44/6
f 31/47/6 32/48/6 33/49/6
f 31/47/6 34/50/6 32/48/6
f 7/51/7 26/52/7 22/53/7
f 7/51/7 3/54/7 26/52/7
f 6/55/6 21/56/6 25/57/6
f 6/55/6 8/58/6 21/56/6
f 11/59/8 24/60/8 20/61/8
f 11/59/8 10/62/8 24/60/8
f 10/63/7 23/64/7 24/65/7
f 10/63/7 9/66/7 23/64/7
f 9/67/9 22/68/9 23/69/9
f 9/67/9 7/70/9 22/68/9
f 8/71/10 19/72/10 21/73/10
f 8/71/10 12/74/10 19/72/10
f 13/75/7 20/76/7 18/77/7
f 13/75/7 11/78/7 20/76/7
f 12/79/8 16/80/8 19/81/8
f 12/79/8 14/82/8 16/80/8
f 14/83/11 17/84/11 16/85/11
f 14/83/11 15/86/11 17/84/11
f 15/87/9 18/88/9 17/89/9
f 15/87/9 13/90/9 18/88/9
f 33/91/2 25/25/2 27/27/2
f 33/91/2 32/92/2 25/25/2
f 31/93/9 27/94/9 5/95/9
f 31/93/9 33/96/9 27/94/9
f 32/97/8 6/98/8 25/99/8
f 32/97/8 34/100/8 6/98/8
f 34/101/1 5/5/1 6/6/1
f 34/101/1 31/102/1 5/5/1
usemtl Green_mat
f 35/103/1 36/104/1 37/105/1
f 35/103/1 38/106/1 36/104/1
f 39/107/1 40/108/1 41/109/1
f 42/110/1 39/107/1 41/109/1
f 37/111/9 40/112/9 41/113/9
f 37/111/9 36/114/9 40/112/9
f 35/115/7 41/116/7 42/117/7
f 35/115/7 37/118/7 41/116/7
f 36/119/6 39/120/6 40/121/6
f 36/119/6 38/122/6 39/120/6
f 38/123/8 42/124/8 39/125/8
f 38/123/8 35/126/8 42/124/8
f 43/127/1 44/128/1 45/129/1
f 43/127/1 46/130/1 44/128/1
f 47/131/2 48/132/2 49/133/2
f 47/131/2 50/134/2 48/132/2
f 45/135/9 50/136/9 47/137/9
f 45/135/9 44/138/9 50/136/9
f 43/139/7 47/140/7 49/141/7
f 43/139/7 45/142/7 47/140/7
f 44/143/6 48/144/6 50/145/6
f 44/143/6 46/146/6 48/144/6
f 46/147/8 49/148/8 48/149/8
f 46/147/8 43/150/8 49/148/8
f 51/151/1 52/152/1 53/153/1
f 51/151/1 54/154/1 52/152/1
f 55/155/2 56/156/2 57/157/2
f 55/155/2 58/158/2 56/156/2
f 53/159/9 58/160/9 55/161/9
f 53/159/9 52/162/9 58/160/9
f 51/163/7 55/164/7 57/165/7
f 51/163/7 53/166/7 55/164/7
f 52/167/6 56/168/6 58/169/6
f 52/167/6 54/170/6 56/168/6
f 54/171/8 57/172/8 56/173/8
f 54/171/8 51/174/8 57/172/8
f 59/175/1 60/176/1 61/177/1
f 59/175/1 62/178/1 60/176/1
f 63/179/1 64/180/1 65/181/1
f 66/182/1 63/179/1 65/181/1
f 61/183/9 64/184/9 65/185/9
f 61/183/9 60/186/9 64/184/9
f 59/187/7 65/188/7 66/189/7
f 59/187/7 61/190/7 65/188/7
f 60/191/6 63/192/6 64/193/6
f 60/191/6 62/194/6 63/192/6
f 62/195/8 66/196/8 63/197/8
f 62/195/8 59/198/8 66/196/8
f 97/199/1 98/200/1 99/201/1
f 97/199/1 100/202/1 98/200/1
f 101/203/2 102/204/2 103/205/2
f 101/203/2 104/206/2 102/204/2
f 99/207/9 104/208/9 101/209/9
f 99/207/9 98/210/9 104/208/9
f 97/211/7 101/212/7 103/213/7
f 97/211/7 99/214/7 101/212/7
f 98/215/6 102/216/6 104/217/6
f 98/215/6 100/218/6 102/216/6
f 100/219/8 103/220/8 102/221/8
f 100/219/8 97/222/8 103/220/8
f 105/223/1 106/224/1 107/225/1
f 105/223/1 108/226/1 106/224/1
f 109/227/2 110/228/2 111/229/2
f 109/227/2 112/230/2 110/228/2
f 107/231/9 112/232/9 109/233/9
f 107/231/9 106/234/9 112/232/9
f 105/235/7 109/236/7 111/237/7
f 105/235/7 107/238/7 109/236/7
f 106/239/6 110/240/6 112/241/6
f 106/239/6 108/242/6 110/240/6
f 108/243/8 111/244/8 110/245/8
f 108/243/8 105/246/8 111/244/8
f 113/247/1 114/248/1 115/249/1
f 113/247/1 116/250/1 114/248/1
f 117/251/1 118/252/1 119/253/1
f 120/254/1 117/251/1 119/253/1
f 115/255/9 118/256/9 119/257/9
f 115/255/9 114/258/9 118/256/9
f 113/259/7 119/260/7 120/261/7
f 113/259/7 115/262/7 119/260/7
f 114/263/6 117/264/6 118/265/6
f 114/263/6 116/266/6 117/264/6
f 116/267/8 120/268/8 117/269/8
f 116/267/8 113/270/8 120/268/8
f 121/271/1 122/272/1 123/273/1
f 121/271/1 124/274/1 122/272/1
f 125/275/2 126/276/2 127/277/2
f 125/275/2 128/278/2 126/276/2
f 123/279/9 128/280/9 125/281/9
f 123/279/9 122/282/9 128/280/9
f 121/283/7 125/284/7 127/285/7
f 121/283/7 123/286/7 125/284/7
f 122/287/6 126/288/6 128/289/6
f 122/287/6 124/290/6 126/288/6
f 124/291/8 127/292/8 126/293/8
f 124/291/8 121/294/8 127/292/8
usemtl Yellow_mat
f 67/295/1 62/296/1 59/297/1
f 67/295/1 68/298/1 62/296/1
f 66/299/2 69/300/2 70/301/2
f 66/299/2 63/302/2 69/300/2
f 59/303/9 63/304/9 66/305/9
f 59/303/9 62/306/9 63/304/9
f 67/307/7 66/308/7 70/309/7
f 67/307/7 59/310/7 66/308/7
f 62/311/6 69/312/6 63/313/6
f 62/311/6 68/314/6 69/312/6
f 68/315/8 70/316/8 69/317/8
f 68/315/8 67/318/8 70/316/8
f 61/319/1 54/320/1 51/321/1
f 61/319/1 60/322/1 54/320/1
f 57/323/2 64/324/2 65/325/2
f 57/323/2 56/326/2 64/324/2
f 51/327/9 56/328/9 57/329/9
f 51/327/9 54/330/9 56/328/9
f 61/331/7 57/332/7 65/333/7
f 61/331/7 51/334/7 57/332/7
f 54/335/6 64/336/6 56/337/6
f 54/335/6 60/338/6 64/336/6
f 60/339/8 65/340/8 64/341/8
f 60/339/8 61/342/8 65/340/8
f 53/343/1 71/344/1 72/345/1
f 53/343/1 52/346/1 71/344/1
f 49/347/2 58/348/2 55/349/2
f 49/347/2 48/350/2 58/348/2
f 72/351/9 48/352/9 49/353/9
f 72/351/9 71/354/9 48/352/9
f 53/355/7 49/356/7 55/357/7
f 53/355/7 72/358/7 49/356/7
f 71/359/6 58/360/6 48/361/6
f 71/359/6 52/362/6 58/360/6
f 52/363/8 55/364/8 58/365/8
f 52/363/8 53/366/8 55/364/8
f 115/367/1 124/368/1 121/369/1
f 115/367/1 114/370/1 124/368/1
f 127/371/2 118/372/2 119/373/2
f 127/371/2 126/374/2 118/372/2
f 121/375/9 126/376/9 127/377/9
f 121/375/9 124/378/9 126/376/9
f 115/379/7 127/380/7 119/381/7
f 115/379/7 121/382/7 127/380/7
f 124/383/6 118/384/6 126/385/6
f 124/383/6 114/386/6 118/384/6
f 114/387/8 119/388/8 118/389/8
f 114/387/8 115/390/8 119/388/8
f 123/391/1 129/392/1 130/393/1
f 123/391/1 122/394/1 129/392/1
f 111/395/2 128/396/2 125/397/2
f 111/395/2 110/398/2 128/396/2
f 130/399/9 110/400/9 111/401/9
f 130/399/9 129/402/9 110/400/9
f 123/403/7 111/404/7 125/405/7
f 123/403/7 130/406/7 111/404/7
f 129/407/6 128/408/6 110/409/6
f 129/407/6 122/410/6 128/408/6
f 122/411/8 125/412/8 128/413/8
f 122/411/8 123/414/8 125/412/8
f 131/415/1 116/416/1 113/417/1
f 131/415/1 132/418/1 116/416/1
f 120/419/2 133/420/2 134/421/2
f 120/419/2 117/422/2 133/420/2
f 113/423/9 117/424/9 120/425/9
f 113/423/9 116/426/9 117/424/9
f 131/427/7 120/428/7 134/429/7
f 131/427/7 113/430/7 120/428/7
f 116/431/6 133/432/6 117/433/6
f 116/431/6 132/434/6 133/432/6
f 132/435/8 134/436/8 133/437/8
f 132/435/8 131/438/8 134/436/8
usemtl wall
f 77/439/1 78/440/1 79/441/1
f 77/439/1 80/442/1 78/440/1
f 73/443/2 75/444/2 76/445/2
f 73/443/2 74/446/2 75/444/2
f 79/447/12 74/448/12 73/449/12
f 79/447/12 78/450/12 74/448/12
f 77/451/13 73/452/13 76/453/13
f 77/451/13 79/454/13 73/452/13
f 78/455/10 75/456/10 74/457/10
f 78/455/10 80/458/10 75/456/10
f 80/459/14 76/460/14 75/461/14
f 80/459/14 77/462/14 76/460/14
f 85/463/1 86/464/1 87/465/1
f 85/463/1 88/466/1 86/464/1
f 81/467/2 83/468/2 84/469/2
f 81/467/2 82/470/2 83/468/2
f 87/471/6 82/472/6 81/473/6
f 87/471/6 86/474/6 82/472/6
f 85/475/9 81/476/9 84/477/9
f 85/475/9 87/478/9 81/476/9
f 86/479/8 83/480/8 82/481/8
f 86/479/8 88/482/8 83/480/8
f 88/483/7 84/484/7 83/485/7
f 88/483/7 85/486/7 84/484/7
f 93/487/1 94/488/1 95/489/1
f 93/487/1 96/490/1 94/488/1
f 89/491/2 91/492/2 92/493/2
f 89/491/2 90/494/2 91/492/2
f 95/495/6 90/496/6 89/497/6
f 95/495/6 94/498/6 90/496/6
f 93/499/9 89/500/9 92/501/9
f 93/499/9 95/502/9 89/500/9
f 94/503/8 91/504/8 90/505/8
f 94/503/8 96/506/8 91/504/8
f 96/507/7 92/508/7 91/509/7
f 96/507/7 93/510/7 92/508/7
